<?xml version="1.0" encoding="iso-8859-1"?>
<!-- Generator: Adobe Illustrator 19.0.0, SVG Export Plug-In . SVG Version: 6.00 Build 0)  -->
<svg version="1.1" id="Capa_1" xmlns="http://www.w3.org/2000/svg" xmlns:xlink="http://www.w3.org/1999/xlink" x="0px" y="0px"
	 viewBox="0 0 512 512" style="enable-background:new 0 0 512 512;" xml:space="preserve">
<path style="fill:#725D57;" d="M512,181v150c0,99.3-81.7,181-181,181s-180-81.7-180-181V181C151,81.7,231.7,0,331,0
	S512,81.7,512,181z"/>
<path style="fill:#68544F;" d="M512,181v150c0,99.3-81.7,181-181,181V0C430.3,0,512,81.7,512,181z"/>
<path style="fill:#ECECF1;" d="M482,181v150c0,82.8-68.2,151-151,151s-150-68.2-150-151V181c0-82.8,67.2-151,150-151
	c41.4,0,78.9,17.8,106.199,44.799C464.2,102.1,482,139.6,482,181z"/>
<path style="fill:#E2E2E7;" d="M482,181v150c0,82.8-68.2,151-151,151V30c41.4,0,78.9,17.8,106.199,44.799
	C464.2,102.1,482,139.6,482,181z"/>
<path style="fill:#FF9F00;" d="M420.399,79.6l-24.3,97.5H295.901l-24.3-97.5l28.799-7.2l6.301,24c7.8-2.1,15.899-3.3,24.3-4.2V61h30
	v31.199c8.401,0.901,16.5,2.1,24.3,4.2l6.301-24L420.399,79.6z"/>
<path style="fill:#FF7816;" d="M420.399,79.6l-24.3,97.5H331V61h30v31.199c8.401,0.901,16.5,2.1,24.3,4.2l6.301-24L420.399,79.6z"/>
<path style="fill:#FFBD86;" d="M451,256c0,26.4-9.901,51.599-27.9,70.8c-14.7,15.901-32.1,41.7-32.1,74.7V451h-90v-60h-60v-60l15-15
	l-15-15v-39.901c0-54.6,39.901-101.4,90-108.9c2.999-0.601,6.301-0.899,9.3-1.199c29.399-1.201,57.001,8.699,77.999,28.799
	C439.3,199.9,451,226.899,451,256z"/>
<rect x="241" y="301" style="fill:#FF7C96;" width="45" height="30"/>
<path style="fill:#F6A96C;" d="M451,256c0,26.4-9.901,51.599-27.9,70.8c-14.7,15.901-32.1,41.7-32.1,74.7V451h-60V152.199
	c2.999-0.601,6.301-0.899,9.3-1.199c29.399-1.201,57.001,8.699,77.999,28.799C439.3,199.9,451,226.899,451,256z"/>
<path style="fill:#FED2A4;" d="M111.7,151H106c-27.001,0.3-52.8,10.199-72.299,28.799C12.7,199.9,0,226.899,0,256
	c0,26.4,10.901,51.599,28.9,70.8C43.6,342.701,61,368.5,61,401.5V451h90v-60h60V261.099C211,203.2,166.3,153.999,111.7,151z"/>
<path style="fill:#FFBD86;" d="M211,261.099V391h-60v60h-45V151h5.7C166.3,153.999,211,203.2,211,261.099z"/>
</svg>
