<svg height="512pt" viewBox="0 0 512 512" width="512pt" xmlns="http://www.w3.org/2000/svg"><path d="m241 0h-145l41.25 55-41.25 55h165v-90c-7.808594-7.8125-12.191406-12.1875-20-20zm0 0" fill="#ff3c7d"/><path d="m241 0h30v197h-30zm0 0" fill="#00429b"/><path d="m256 0h15v197h-15zm0 0" fill="#002659"/><path d="m352 272h-192v-90h192zm0 0" fill="#fedc35"/><path d="m352 272h-96v-90h96zm0 0" fill="#fdc500"/><path d="m392 332h-272v-90h272zm0 0" fill="#fdbf00"/><path d="m392 332h-136v-90h136zm0 0" fill="#ff9101"/><path d="m432 392h-352v-90h352zm0 0" fill="#fedc35"/><path d="m432 392h-176v-90h176zm0 0" fill="#fdc500"/><path d="m472 452h-432v-90h432zm0 0" fill="#fdbf00"/><path d="m472 452h-216v-90h216zm0 0" fill="#ff9101"/><path d="m512 512h-512v-90h512zm0 0" fill="#fedc35"/><path d="m256 422h256v90h-256zm0 0" fill="#fdc500"/></svg>